# xmcd CD database file
#
# Track frame offsets:
#	150
#	20505
#	42860
#	63370
#	99455
#	120045
#	144795
#	165705
#	205225
#	229530
#	246740
#	262355
#	278710
#	299455
#
# Disc length: 4325 seconds
#
# Revision: 0
# Processed by: cddbd v1.5.2PL0 Copyright (c) Steve Scherf et al.
# Submitted via: Feurio! 1.68 - http://www.feurio.com
#
DISCID=c910e30e
DTITLE=Various Artist - 2004 Steppers.Com Vol. 10
DYEAR=1900
DGENRE=
TTITLE0=Michael Jackson - In The Back
TTITLE1=Gerald Levert - Click A Glass
TTITLE2=Alexander S. W/KEM - Seldom Blue 
TTITLE3=Last Night (D J. Calvin Remix) - Too Cold
TTITLE4=Live It Up - John Legend
TTITLE5=20 Years Later - Bobby Hutton
TTITLE6=Show Me the Way - Earth Wind And Fire
TTITLE7=Love 2 The Music (Bill Berry Remix) - The Temptations
TTITLE8=Can't Stop Lovin' You - K.E.M.
TTITLE9=Truth Is - Fantasia
TTITLE10=This Is Me - Fantasia
TTITLE11=Girl - Destiny's Child
TTITLE12=Wonderful - Ashanti
TTITLE13=After The Laughter (Bill Berry Remix) - Swing Out Sister
EXTD=
EXTT0=
EXTT1=
EXTT2=
EXTT3=
EXTT4=
EXTT5=
EXTT6=
EXTT7=
EXTT8=
EXTT9=
EXTT10=
EXTT11=
EXTT12=
EXTT13=
PLAYORDER=
